#define kbd_width 12
#define kbd_height 10
static unsigned char kbd_bits[] = {
   0x00, 0x00, 0xff, 0x0f, 0x55, 0x08, 0x01, 0x0a, 0x57, 0x0b, 0x01, 0x08,
   0xf5, 0x0a, 0x01, 0x08, 0xff, 0x0f, 0x00, 0x00 };
