#define mail_width 8
#define mail_height 14
static unsigned char mail_bits[] = {
   0x00, 0x00, 0x00, 0x00, 0xff, 0x7e, 0xbd, 0xdb, 0xe7, 0xff, 0x00, 0x00,
   0x00, 0x00 };
