#define music_width 8
#define music_height 14
static unsigned char music_bits[] = {
   0x00, 0x00, 0x00, 0xfc, 0xfc, 0x84, 0x84, 0xc6, 0xe7, 0x63, 0x00, 0x00,
   0x00, 0x00 };
