/* XPM */
static char * pl_xpm[] = {
"12 10 3 1",
" 	c None",
".	c #FFFFFF",
"+	c #DC143C",
"            ",
"............",
"............",
"............",
"............",
"++++++++++++",
"++++++++++++",
"++++++++++++",
"++++++++++++",
"            "};
