/* XPM */
static char * ru_xpm[] = {
"12 10 4 1",
" 	c None",
".	c #FFFFFF",
"+	c #0036A8",
"@	c #D62718",
"            ",
"............",
"............",
"++++++++++++",
"++++++++++++",
"++++++++++++",
"++++++++++++",
"@@@@@@@@@@@@",
"@@@@@@@@@@@@",
"            "};
