/* XPM */
static char * swe_xpm[] = {
"12 10 3 1",
" 	c None",
".	c #006AA9",
"+	c #FECD00",
"            ",
"....++......",
"....++......",
"....++......",
"++++++++++++",
"++++++++++++",
"....++......",
"....++......",
"....++......",
"            "};
