/* XPM */
static char * test_xpm[] = {
"8 14 3 1",
" 	c None",
".	c #0200FF",
"+	c #E7FF00",
"        ",
"        ",
"        ",
"        ",
"........",
" ...... ",
"+ .... +",
"++ .. ++",
"+++  +++",
"++++++++",
"        ",
"        ",
"        ",
"        "};
