/* XPM */
static char * us_xpm[] = {
"12 10 4 1",
" 	c None",
".	c #39386E",
"+	c #B41D31",
"@	c #FFFFFF",
"            ",
"......++++++",
"......@@@@@@",
"......++++++",
"......@@@@@@",
"......++++++",
"@@@@@@@@@@@@",
"++++++++++++",
"@@@@@@@@@@@@",
"            "};
