#define wifi_width 10
#define wifi_height 10
static unsigned char wifi_bits[] = {
   0x00, 0x00, 0x00, 0x00, 0x00, 0x00, 0x00, 0x00, 0x10, 0x00, 0x14, 0x00,
   0x15, 0x00, 0x00, 0x00, 0x00, 0x00, 0x00, 0x00 };
