#define wifi_width 10
#define wifi_height 10
static unsigned char wifi_bits[] = {
   0x00, 0x00, 0x00, 0x00, 0x00, 0x00, 0x00, 0x00, 0x00, 0x00, 0x04, 0x00,
   0x05, 0x00, 0x00, 0x00, 0x00, 0x00, 0x00, 0x00 };
