#define wifi_width 10
#define wifi_height 10
static unsigned char wifi_bits[] = {
   0x00, 0x00, 0x00, 0x00, 0x00, 0x01, 0x40, 0x01, 0x50, 0x01, 0x54, 0x01,
   0x55, 0x01, 0x00, 0x00, 0x00, 0x00, 0x00, 0x00 };
